HIERARCHY
ROOT Hips
{
	OFFSET	0.00	0.00	0.00
	CHANNELS 6 Xposition Yposition Zposition Zrotation Xrotation Yrotation
	JOINT Chest
	{
		OFFSET	0.00	6.28	0.00
		CHANNELS 3 Zrotation Xrotation Yrotation
		JOINT Neck
		{
			OFFSET	0.00	14.30	0.00
			CHANNELS 3 Zrotation Xrotation Yrotation
			JOINT Head
			{
				OFFSET	0.00	2.64	0.00
				CHANNELS 3 Zrotation Xrotation Yrotation
				End Site
				{
					OFFSET	0.00	4.50	0.00
				}
			}
		}
		JOINT LeftCollar
		{
			OFFSET	1.12	11.36	1.87
			CHANNELS 3 Zrotation Xrotation Yrotation
			JOINT LeftUpArm
			{
				OFFSET	4.57	2.02	-1.82
				CHANNELS 3 Zrotation Xrotation Yrotation
				JOINT LeftLowArm
				{
					OFFSET	0.22	-10.35	-0.06
					CHANNELS 3 Zrotation Xrotation Yrotation
					JOINT LeftHand
					{
						OFFSET	0.09	-10.35	2.18
						CHANNELS 3 Zrotation Xrotation Yrotation
						End Site
						{
							OFFSET	0.13	-6.69	1.71
						}
					}
				}
			}
		}
		JOINT RightCollar
		{
			OFFSET	-1.12	11.36	1.87
			CHANNELS 3 Zrotation Xrotation Yrotation
			JOINT RightUpArm
			{
				OFFSET	-4.71	2.03	-1.82
				CHANNELS 3 Zrotation Xrotation Yrotation
				JOINT RightLowArm
				{
					OFFSET	-0.26	-10.43	-0.06
					CHANNELS 3 Zrotation Xrotation Yrotation
					JOINT RightHand
					{
						OFFSET	0.00	-10.26	2.18
						CHANNELS 3 Zrotation Xrotation Yrotation
						End Site
						{
							OFFSET	-0.14	-6.67	1.71
						}
					}
				}
			}
		}
	}
	JOINT LeftUpLeg
	{
		OFFSET	3.91	0.00	0.00
		CHANNELS 3 Zrotation Xrotation Yrotation
		JOINT LeftLowLeg
		{
			OFFSET	-0.44	-17.57	1.70
			CHANNELS 3 Zrotation Xrotation Yrotation
			JOINT LeftFoot
			{
				OFFSET	-0.04	-17.20	-1.48
				CHANNELS 3 Zrotation Xrotation Yrotation
				End Site
				{
					OFFSET	0.00	-3.93	5.23
				}
			}
		}
	}
	JOINT RightUpLeg
	{
		OFFSET	-3.91	0.00	0.00
		CHANNELS 3 Zrotation Xrotation Yrotation
		JOINT RightLowLeg
		{
			OFFSET	0.44	-17.62	1.70
			CHANNELS 3 Zrotation Xrotation Yrotation
			JOINT RightFoot
			{
				OFFSET	0.00	-17.14	-1.48
				CHANNELS 3 Zrotation Xrotation Yrotation
				End Site
				{
					OFFSET	0.00	-4.04	5.23
				}
			}
		}
	}
}
MOTION
Frames: 28
Frame Time: 0.04
46.34	-24.25	-5.35	-82.59	-12.85	33.45	2.70	28.75	-0.34	14.44	2.32	-30.58	18.10	-1.62	6.02	-4.90	20.67	2.91	-5.85	-37.43	-21.59	156.69	-62.46	90.87	7.80	2.58	1.65	14.43	6.78	-1.03	-11.17	-58.40	52.26	-10.52	-29.92	29.61	-81.34	12.88	-12.24	-12.31	-12.03	141.66	-3.12	-8.97	-21.52	93.06	-59.04	-82.96	1.12	-7.92	-15.08	3.44	-8.80	23.34	-14.63	55.27	18.01	
47.98	-26.49	-7.01	-90.49	-11.90	28.83	5.22	25.58	-3.63	20.71	2.82	-35.59	18.98	-1.56	6.32	-3.41	19.92	5.04	-12.15	-33.94	-23.68	159.39	-60.83	100.02	0.84	2.46	0.18	16.37	-1.19	-0.68	-11.34	-50.27	55.89	-12.15	-23.15	28.11	-67.77	10.07	-11.45	-10.54	-16.85	153.26	-1.47	-9.26	-2.16	70.27	-80.16	-109.07	1.45	-12.50	-6.25	3.68	-8.69	26.36	-7.79	56.09	11.95	
48.88	-27.09	-8.34	-97.54	-13.06	24.53	8.77	23.48	-7.26	20.47	6.95	-39.17	16.90	-4.11	6.34	9.36	0.28	-20.78	-25.71	-18.22	19.16	160.78	-57.84	102.25	-15.38	2.90	-3.23	13.85	-3.60	1.68	-7.18	-46.90	62.81	-12.26	-13.92	20.54	-68.42	10.20	-11.51	-5.96	-18.57	146.01	-1.52	0.60	179.37	-67.71	54.20	66.57	4.16	-15.39	-0.51	3.54	-8.75	24.64	-8.83	58.76	13.07	
49.31	-26.74	-9.41	-99.33	-15.26	16.91	10.38	26.16	-9.54	11.52	7.57	-34.66	11.32	-8.47	5.01	3.38	-2.50	-34.56	-22.21	-21.81	39.05	161.52	-55.07	103.98	-21.33	3.30	-4.43	7.08	-0.31	4.46	1.44	-50.32	74.77	-11.67	-8.11	15.53	-62.56	9.05	-10.97	0.16	-16.95	166.19	-1.87	0.61	-176.79	-48.75	34.82	37.29	6.00	-22.27	5.37	3.11	4.43	14.25	-21.78	52.08	23.95	
49.47	-25.95	-10.34	-99.52	-14.73	10.76	7.24	27.28	-9.01	5.16	6.95	-34.18	12.96	-12.49	6.62	-0.06	-0.37	-35.05	-19.65	-25.00	42.43	161.69	-53.67	104.76	-21.62	3.32	-4.49	4.01	-0.13	6.43	7.17	-50.35	80.39	-12.41	-8.40	16.70	-53.37	7.37	-9.91	-0.22	-20.13	158.96	-1.86	0.61	-176.87	-53.44	35.74	42.87	6.85	-28.01	4.55	2.11	9.34	4.68	-28.00	50.35	29.23	
49.64	-25.11	-11.17	-99.80	-12.86	7.79	5.50	27.04	-14.19	1.23	3.88	-29.11	13.51	-13.80	7.20	-2.05	2.93	-28.08	-19.13	-29.58	39.79	161.68	-52.99	105.12	-19.70	3.18	-4.11	1.10	1.64	9.17	13.31	-52.31	84.71	-12.46	-11.16	18.62	-44.74	5.97	-8.68	2.90	-19.72	158.96	-2.02	10.12	-176.38	-54.54	33.22	42.62	6.54	-33.12	3.67	1.62	10.63	0.72	-23.24	48.34	24.48	
49.82	-24.46	-11.93	-100.46	-11.24	6.77	3.97	25.79	-14.61	0.68	3.02	-29.41	13.38	-14.49	7.27	-2.02	2.73	-27.77	70.31	-42.26	-53.56	156.55	-64.64	96.42	80.53	12.68	12.10	0.87	1.49	8.70	15.33	-52.21	84.98	-11.81	-12.60	18.62	-36.89	4.86	-7.40	1.81	-29.11	152.01	-1.89	0.61	-176.63	-58.12	29.57	44.43	6.29	-33.14	-3.78	1.79	2.56	2.53	-33.49	47.61	33.54	
49.95	-24.08	-12.50	-100.51	-11.09	6.22	2.10	25.67	-14.28	0.86	3.77	-31.56	12.97	-14.11	6.96	-0.85	1.08	-26.34	62.31	-27.34	-36.17	132.68	-76.88	67.11	98.04	16.34	12.15	1.61	0.46	8.03	15.86	-51.09	83.05	-11.91	-12.58	18.91	-28.04	3.84	-5.79	2.57	-32.05	147.33	-1.90	0.61	-176.48	-60.30	25.35	43.88	4.94	-34.40	-8.99	1.97	0.51	4.34	-26.89	46.29	27.18	
49.99	-24.15	-12.99	-100.35	-11.66	4.89	0.41	25.70	-11.13	1.98	5.56	-36.15	13.26	-14.34	7.17	1.57	-6.68	-28.67	56.59	-23.41	-41.15	138.17	-75.56	73.66	76.72	11.88	11.94	0.20	-5.24	7.95	14.53	-45.27	72.01	-10.89	-15.17	18.87	-17.45	2.96	-3.69	4.81	-32.56	145.74	-1.97	4.89	-176.29	-62.52	25.11	46.67	5.63	-31.35	-14.89	2.22	-9.14	8.97	-25.25	49.12	26.44	
49.94	-24.59	-13.49	-100.34	-12.04	2.71	1.47	27.90	-12.57	0.70	3.84	-36.27	13.19	-13.98	7.06	1.36	1.76	-22.95	65.48	-31.32	-34.12	141.71	-74.48	77.77	77.25	11.99	11.96	2.56	1.65	5.64	16.60	-51.61	75.75	-8.84	-18.79	17.48	-6.90	2.49	-1.48	8.36	-32.73	149.65	-2.04	8.85	-176.23	-63.54	22.18	45.41	5.23	-33.01	-18.61	2.43	-9.11	11.25	-13.09	45.66	15.44	
49.84	-25.06	-13.91	-100.23	-11.71	0.59	1.28	28.69	-13.03	0.99	2.54	-35.35	12.34	-14.08	6.61	2.72	2.23	-23.41	65.21	-30.31	-32.62	138.89	-75.38	74.40	79.78	12.52	12.07	2.82	2.41	4.61	19.85	-51.35	75.98	-5.83	-22.46	13.42	-0.78	2.40	-0.17	7.53	-37.80	140.98	-1.97	5.32	-176.18	-65.26	28.41	53.24	6.39	-35.17	-22.31	2.55	-9.09	12.64	-11.06	40.86	13.20	
49.71	-25.51	-14.27	-99.98	-10.53	-0.86	1.74	28.21	-14.81	-0.58	2.22	-36.16	14.14	-13.24	7.41	2.97	4.03	-22.65	66.24	-32.96	-32.13	141.76	-74.51	77.66	82.80	13.15	12.17	3.25	3.94	3.38	25.32	-50.74	80.25	-5.63	-21.62	14.97	-1.28	2.40	-0.28	11.80	-35.11	171.52	-2.07	16.63	-176.13	-53.13	42.85	46.07	7.78	-38.06	-23.15	2.52	-9.09	12.22	-7.11	35.18	9.74	
49.55	-25.78	-14.50	-99.31	-8.97	-1.80	2.04	26.89	-19.76	-3.02	1.58	-36.16	16.28	-11.11	8.03	1.21	6.81	-17.50	67.15	-35.80	-31.37	141.67	-74.56	77.48	88.16	14.28	12.26	3.19	6.10	3.91	32.05	-49.00	87.01	-2.65	-19.72	7.29	-3.00	2.41	-0.64	10.00	-39.24	-172.61	-2.03	14.43	-176.34	-37.79	51.03	33.19	10.96	-41.39	-23.42	2.47	-9.10	11.66	-9.59	30.57	10.81	
49.40	-25.86	-14.59	-98.24	-7.72	-2.30	0.72	23.69	-18.76	-3.59	3.18	-36.60	17.45	-8.92	8.01	-0.21	4.55	-21.93	66.70	-31.07	-36.04	136.37	-76.10	71.23	96.50	16.03	12.19	2.59	3.93	3.74	30.55	-44.91	83.00	4.15	-20.19	-5.64	-6.97	2.49	-1.49	10.38	-47.82	-170.98	-1.86	0.61	-176.92	-40.01	43.16	32.63	15.95	-44.00	-22.15	2.47	-9.10	11.68	-13.42	25.73	12.24	
49.26	-25.81	-14.60	-97.20	-7.41	-2.58	-1.10	22.36	-19.18	-3.46	3.85	-38.59	18.74	-6.49	7.86	-0.19	2.85	-22.63	64.59	-30.85	-41.70	153.19	-68.56	91.33	89.23	14.50	12.27	1.93	2.41	3.82	29.52	-42.61	86.58	5.07	-23.03	-8.73	-16.04	2.88	-3.40	12.98	-38.88	-7.77	0.40	-8.88	19.56	-35.96	39.37	27.37	1.53	-44.55	20.50	0.10	-9.07	-14.88	75.49	-3.32	-6.58	
49.56	-25.74	-14.74	-92.90	-12.20	-2.37	-11.06	30.41	-14.74	2.43	2.57	-42.54	17.11	-8.29	7.66	7.71	-2.33	-24.02	59.38	-29.44	-44.15	153.78	-68.18	91.92	90.92	14.86	12.27	4.79	-1.10	2.12	31.00	-41.13	88.79	5.11	-24.60	-10.35	-16.30	2.89	-3.45	7.35	-33.63	-1.95	-0.31	-9.09	11.37	-33.83	37.46	24.74	2.05	-40.11	12.59	0.35	-9.21	-11.97	135.70	3.52	14.51	
49.05	-25.58	-14.48	-95.40	-8.61	-3.36	-5.33	22.64	-17.49	-2.31	3.69	-43.00	19.65	-3.48	7.23	0.89	2.36	-22.93	63.80	-30.70	-43.48	157.89	-63.37	97.74	87.88	14.22	12.26	2.82	1.46	1.15	28.58	-41.72	93.17	2.85	-27.24	-7.77	-13.25	2.72	-2.82	13.77	-36.96	-4.48	-0.22	-9.06	12.40	-33.71	27.89	20.31	8.38	-48.28	27.45	0.23	-9.20	-13.31	156.48	8.40	11.32	
48.97	-25.55	-14.44	-94.70	-9.27	-3.44	-6.91	23.16	-16.54	-1.68	3.87	-44.60	20.20	-2.90	7.25	1.53	2.36	-23.35	63.67	-29.24	-42.02	156.95	-64.88	96.16	90.10	14.69	12.27	3.77	1.06	0.03	28.12	-42.06	93.38	1.35	-27.61	-4.40	-13.08	2.72	-2.78	13.18	-36.16	-2.99	-0.19	-9.06	12.77	-35.45	27.30	21.29	2.62	-47.35	30.16	0.06	-9.13	-15.22	124.06	-1.61	11.87	
48.93	-25.57	-14.42	-94.44	-9.14	-3.06	-7.26	22.76	-16.69	-1.25	4.15	-44.60	19.94	-2.67	7.06	1.77	1.70	-24.38	62.03	-27.85	-42.13	157.59	-63.91	97.19	87.39	14.12	12.26	4.26	0.45	-0.25	27.53	-42.03	92.03	-0.08	-27.07	-0.36	-12.40	2.68	-2.64	11.57	-36.46	-2.15	-0.20	-9.06	12.67	-31.59	29.41	19.50	0.59	-47.76	31.74	0.20	-9.14	-13.68	103.25	-6.22	4.96	
48.94	-25.56	-14.38	-94.52	-8.65	-2.82	-7.14	21.81	-17.36	-1.16	4.53	-43.75	19.48	-2.85	6.95	1.81	0.84	-25.19	60.86	-25.81	-42.23	156.88	-64.85	96.19	86.94	14.02	12.25	4.26	-0.07	0.14	27.05	-41.56	90.16	-0.93	-26.31	2.23	-11.99	2.67	-2.55	11.24	-36.82	-1.27	-0.37	-9.09	10.66	-28.93	30.38	18.01	0.83	-47.77	28.92	0.35	-9.17	-12.03	104.13	-6.10	5.46	
48.96	-25.54	-14.33	-94.73	-8.35	-2.76	-7.02	21.41	-17.62	-1.03	4.64	-43.24	19.10	-3.45	7.01	1.94	1.46	-25.38	61.15	-25.21	-40.65	156.11	-65.74	95.17	86.43	13.91	12.25	4.71	0.46	-0.05	26.73	-41.73	89.58	-1.29	-26.09	3.20	-11.38	2.64	-2.43	12.43	-37.17	-5.05	-0.37	-9.10	10.59	-29.07	30.45	18.14	0.79	-48.12	32.43	0.01	-9.09	-15.81	104.03	-6.07	5.58	
48.99	-25.49	-14.25	-94.83	-8.21	-2.52	-7.08	21.10	-17.91	-0.76	5.21	-42.82	18.34	-4.22	6.95	1.92	1.87	-25.34	61.82	-24.56	-39.39	154.16	-67.76	92.53	87.47	14.13	12.26	4.58	0.81	-0.41	26.40	-41.39	88.99	-1.34	-26.49	3.20	-9.78	2.58	-2.09	13.06	-37.53	-8.24	-0.39	-9.10	10.40	-29.06	31.14	18.41	25.81	-45.60	-18.36	3.39	-8.82	22.65	-17.00	22.45	13.41	
49.05	-25.46	-14.15	-94.89	-8.18	-2.16	-7.17	21.14	-17.38	-0.20	4.93	-43.96	17.87	-5.15	7.05	2.22	1.06	-24.83	61.41	-26.03	-42.22	151.45	-69.93	89.02	90.64	14.80	12.27	3.57	-0.02	-1.59	25.35	-39.77	86.20	-0.67	-28.69	-0.21	-5.09	2.45	-1.09	12.29	-37.38	-5.84	-0.52	-9.12	8.84	-28.33	31.42	17.99	26.13	-45.62	-21.93	3.67	-8.70	26.17	-17.15	22.27	13.44	
49.13	-25.43	-14.08	-95.45	-8.48	-1.93	-6.98	22.35	-15.68	1.52	3.19	-48.16	19.23	-7.95	8.57	3.50	-0.68	-24.41	55.58	-26.57	-46.72	132.17	-77.02	66.29	100.87	16.93	12.05	2.99	-1.53	-2.29	20.69	-37.20	81.03	-1.86	-33.06	0.28	-3.43	2.42	-0.74	12.42	-36.20	-4.34	-0.49	-9.12	9.21	-30.28	28.70	18.25	26.95	-45.56	-30.44	4.31	-8.33	34.74	-16.95	22.29	13.34	
49.26	-25.37	-14.02	-96.56	-8.87	-1.87	-6.32	24.40	-13.92	3.56	0.98	-55.43	26.57	-11.78	14.03	4.52	-0.03	-23.46	51.18	-42.71	-72.23	159.70	-59.77	100.85	88.56	14.36	12.27	4.23	-1.00	-0.93	11.84	-34.33	70.92	-3.23	-42.50	3.72	1.42	2.40	0.31	13.28	-34.69	-3.68	-0.48	-9.11	9.37	-32.04	26.68	18.54	27.46	-45.22	-42.35	5.06	-7.69	46.41	-15.78	22.06	12.68	
49.26	-25.30	-14.02	-96.68	-9.24	-3.01	-6.50	27.42	-11.56	4.79	-3.30	-67.52	36.91	-15.13	23.13	4.03	8.14	-17.76	49.31	-57.15	-82.14	160.28	-57.89	102.20	68.61	10.23	11.41	6.89	3.97	-1.27	3.91	-34.76	67.66	-5.04	-50.49	6.65	3.96	2.43	0.85	13.92	-38.31	-3.62	-0.36	0.94	8.77	-36.86	24.29	20.65	22.95	-43.30	-32.42	4.31	-8.33	34.81	-12.33	21.53	10.85	
49.21	-25.22	-14.03	-96.67	-8.76	-4.86	-6.94	29.06	-10.38	5.25	-8.11	-77.21	46.77	-13.08	30.71	6.53	8.07	-9.83	34.56	-65.74	-98.55	160.90	-55.22	103.89	53.58	7.43	9.85	3.80	2.80	-0.12	3.97	-31.28	66.44	-7.03	-54.31	9.51	15.05	2.82	3.19	15.01	-43.52	-5.03	-0.27	11.68	6.97	-46.00	23.35	27.12	15.41	-41.22	-10.22	2.35	-9.12	10.26	-6.67	20.02	7.98	
49.24	-25.15	-13.94	-95.77	-8.81	-5.47	-8.41	33.09	-7.80	5.78	-16.88	-84.40	52.20	-9.12	32.99	-9.05	34.37	9.14	163.95	-75.26	20.64	159.84	-58.07	102.08	55.40	7.75	10.08	15.13	14.81	-8.58	0.31	-47.89	76.29	-8.93	-56.19	12.25	22.87	3.36	4.78	13.79	-45.33	-4.73	-0.64	19.03	4.02	-50.12	17.25	25.49	9.23	-50.90	2.89	1.77	17.01	1.00	-23.17	11.23	12.38	
